<svg xmlns="http://www.w3.org/2000/svg" viewBox="0 0 96.45 142"><title>Asset 4</title><g id="Layer_2" data-name="Layer 2"><g id="Layer_1-2" data-name="Layer 1"><path d="M35.12,8c-3.3,8.35-3.54,12.06-1.22,18.91l1,2.66-4.75-2.32c-3.66-1.85-6.83-2.43-13.91-2.32-5,.12-10.48.47-12.07.93-2.8.7-2.8.81,2,4.87a34.59,34.59,0,0,0,9.39,5.68l4.64,1.39-2.44,2.56C14,44,13.17,48.49,15.61,50.81c1.7,1.63,1.82,2.21.36,3.83s-1.1,1.74,3.29,1a47,47,0,0,0,9.52-2.9l4.51-2.08v3.24c0,3.83,2.07,9.4,3.9,10.44,1.59.93,4.63,0,4.63-1.39,0-.47-.73-.7-1.7-.35-2.81,1-3.54-5.45-1.22-11C40,49.07,41.34,46.87,42,46.87s1,.35.85.81a68.74,68.74,0,0,0,.85,9c1.59,11.48,1.1,16.23-2.56,26.09-3.53,9.5-5.73,12.87-5.24,8.11.49-5.45,0-7.07-2.2-6.72a4.81,4.81,0,0,0-3,2.08c-1.34,2.79-1.09,8.7.49,10.21,1,.93.25,1.16-3.41.58C22.07,96.38,14.87,92,10.61,87,9,85,7.68,84,7.68,84.79A2.89,2.89,0,0,0,8.9,86.87a2.39,2.39,0,0,1,1.22,2c0,.69-.86.58-2.2-.35q-2.74-2.27-.36.35c.85,1.16,2.19,1.73,3.05,1.27s1-.23.36.23,0,2,1.22,3.13c2.81,2.9,1,2.67-3.66-.69a63.5,63.5,0,0,0-6.95-4.18C-.86,87.45-.61,88,3.29,91.86c4.63,4.64,4.63,4.64,1.83,5.22-2.56.46-2.44.58.73.69s3.29.47,1.22,1.16C3,100.44,13,103,20,102.18c3.29-.35,6.09-.35,6.46.12s-2.32,6.37-6,13.1C14,127.46,9.26,140.33,10.61,141.72c1.34,1.16,2.56-1.16,5.36-9.62a85.37,85.37,0,0,1,6.1-13.92c3.29-5.68,3.41-5.8,8.29-5.45,4.64.35,5.12.12,5.85-2.66a11,11,0,0,0,.13-5.22c-.61-1.86,0-1.74,5,.69,6.7,3.25,9.63,3.6,8.53,1-.36-.93-.12-1.74.49-1.74a1.19,1.19,0,0,0,1.22-1.16c0-.81-1.59-.93-4.27-.47-4.27.7-11.58-1.39-11.58-3.47,0-.58,2.19-.7,5-.24s8.29.93,12.44,1.28l7.56.46L53.17,100c-4.27-.7-7.69-1.74-7.69-2.32s3.42-.93,7.69-.81,8.53-.12,9.75-.82c1.59-.81-1-1-8.9-.69-7.56.35-11,.11-11-.81,0-.7,2.2-1.63,4.88-2s5.25-1.16,5.61-1.74-.36-.7-1.58-.24c-2.08.7-2.08.58.12-1.73,1.34-1.4,2-2.56,1.46-2.56s-2,1.16-3.29,2.56-2.2,2-2.32,1.16c0-1.16-.61-1.16-2.56-.24-1.34.81-2.8,1.16-3,.81-.73-.69,10.49-16.69,14.51-20.87,3.17-3.13,5.86-4.4,12.08-5.8,2.68-.69,3.29-.34,4.39,2.56a13.19,13.19,0,0,0,4.51,5.45c2.93,1.85,3.78,1.85,8.9.34s5.73-2.08,6.1-5.56c.24-2.21-.12-4.41-.85-5.1-2.08-2-1.59-3.13,1.21-2.79,1.47.12,2.93-.46,3.18-1.27s-.13-1.16-1.47-.7c-1,.47-4.39.12-7.32-.69-6.7-1.74-11.21-.82-13,2.89-.74,1.63-2.32,2.9-3.42,2.9a36.28,36.28,0,0,0-7.68,1.86c-4.51,1.39-6.95,3.25-11.1,8.46-2.8,3.6-5.85,7.77-6.71,9.16-2.43,4.41-2.92,2.09-.85-3.71,2.2-6.26,2.44-14,.73-22.72-.73-3.37-1-6.38-.73-6.61s2.2.58,4.15,2a11.89,11.89,0,0,0,8.29,2.09c4.76-.35,4.76-.35,4.39-5a14.69,14.69,0,0,0-2.32-6.73c-3.17-3.24-1.09-3.47,5.61-.69,6.1,2.43,7.44,3.71,5,4.87-.73.35-.61.46.25.35s1.7-1.4,1.95-2.67c.36-2.67-8.42-9.63-12.2-9.63s-2.44-1.85,2.56-4.05a27,27,0,0,0,7.32-4.53c2.56-2.55,6.83-11.13,5.49-11.13-5.61,0-23.42,6.61-27.07,10A5.21,5.21,0,0,1,46,24.84c-.24,0-.12-3.13.37-6.84.61-6.15.36-7.54-2.56-12.18C42.07,2.92,40.12.37,39.51,0S37,3.27,35.12,8ZM21,46.29c-2.68,4.29-4,5-5.49,2.67-.48-.7.49-2.44,2.44-4.06C22.68,41.07,23.9,41.65,21,46.29Z"/></g></g></svg>